{
	"asset":{
		"generator":"Khronos glTF Blender I/O v3.5.30",
		"version":"2.0"
	},
	"scene":0,
	"scenes":[
		{
			"name":"Scene",
			"nodes":[
				0
			]
		}
	],
	"nodes":[
		{
			"mesh":0,
			"name":"Cube",
			"translation":[
				-1.9595485925674438,
				0,
				0
			]
		}
	],
	"materials":[
		{
			"doubleSided":true,
			"name":"Material.004",
			"pbrMetallicRoughness":{
				"baseColorFactor":[
					0,
					0,
					0,
					1
				],
				"metallicFactor":0,
				"roughnessFactor":0.4000000059604645
			}
		},
		{
			"doubleSided":true,
			"name":"Material.006",
			"pbrMetallicRoughness":{
				"baseColorFactor":[
					0.8000000715255737,
					0,
					0.002188359387218952,
					1
				],
				"metallicFactor":0,
				"roughnessFactor":0.4000000059604645
			}
		},
		{
			"doubleSided":true,
			"name":"Material.007",
			"pbrMetallicRoughness":{
				"baseColorFactor":[
					0.8000000715255737,
					0.1985299289226532,
					0,
					1
				],
				"metallicFactor":0,
				"roughnessFactor":0.4000000059604645
			}
		},
		{
			"doubleSided":true,
			"name":"Material.008",
			"pbrMetallicRoughness":{
				"baseColorFactor":[
					0.800000011920929,
					0.800000011920929,
					0.800000011920929,
					1
				],
				"metallicFactor":0,
				"roughnessFactor":0.4000000059604645
			}
		},
		{
			"doubleSided":true,
			"name":"Material.009",
			"pbrMetallicRoughness":{
				"baseColorFactor":[
					0.8000000715255737,
					0.7608712315559387,
					0,
					1
				],
				"metallicFactor":0,
				"roughnessFactor":0.4000000059604645
			}
		},
		{
			"doubleSided":true,
			"name":"Material.010",
			"pbrMetallicRoughness":{
				"baseColorFactor":[
					0,
					0.0009323492995463312,
					0.8000000715255737,
					1
				],
				"metallicFactor":0,
				"roughnessFactor":0.4000000059604645
			}
		},
		{
			"doubleSided":true,
			"name":"Material.011",
			"pbrMetallicRoughness":{
				"baseColorFactor":[
					0,
					0.8000000715255737,
					0.030743123963475227,
					1
				],
				"metallicFactor":0,
				"roughnessFactor":0.4000000059604645
			}
		}
	],
	"meshes":[
		{
			"name":"Cube",
			"primitives":[
				{
					"attributes":{
						"POSITION":0,
						"TEXCOORD_0":1,
						"NORMAL":2
					},
					"indices":3,
					"material":0
				},
				{
					"attributes":{
						"POSITION":4,
						"TEXCOORD_0":5,
						"NORMAL":6
					},
					"indices":7,
					"material":1
				},
				{
					"attributes":{
						"POSITION":8,
						"TEXCOORD_0":9,
						"NORMAL":10
					},
					"indices":11,
					"material":2
				},
				{
					"attributes":{
						"POSITION":12,
						"TEXCOORD_0":13,
						"NORMAL":14
					},
					"indices":15,
					"material":3
				},
				{
					"attributes":{
						"POSITION":16,
						"TEXCOORD_0":17,
						"NORMAL":18
					},
					"indices":19,
					"material":4
				},
				{
					"attributes":{
						"POSITION":20,
						"TEXCOORD_0":21,
						"NORMAL":22
					},
					"indices":7,
					"material":5
				},
				{
					"attributes":{
						"POSITION":23,
						"TEXCOORD_0":24,
						"NORMAL":25
					},
					"indices":11,
					"material":6
				}
			]
		}
	],
	"accessors":[
		{
			"bufferView":0,
			"componentType":5126,
			"count":3483,
			"max":[
				5,
				5,
				1
			],
			"min":[
				-1,
				-1,
				-5
			],
			"type":"VEC3"
		},
		{
			"bufferView":1,
			"componentType":5126,
			"count":3483,
			"type":"VEC2"
		},
		{
			"bufferView":2,
			"componentType":5126,
			"count":3483,
			"type":"VEC3"
		},
		{
			"bufferView":3,
			"componentType":5123,
			"count":14904,
			"type":"SCALAR"
		},
		{
			"bufferView":4,
			"componentType":5126,
			"count":36,
			"max":[
				4.800000190734863,
				4.800000190734863,
				-5
			],
			"min":[
				-0.800000011920929,
				-0.800000011920929,
				-5
			],
			"type":"VEC3"
		},
		{
			"bufferView":5,
			"componentType":5126,
			"count":36,
			"type":"VEC2"
		},
		{
			"bufferView":6,
			"componentType":5126,
			"count":36,
			"type":"VEC3"
		},
		{
			"bufferView":7,
			"componentType":5123,
			"count":54,
			"type":"SCALAR"
		},
		{
			"bufferView":8,
			"componentType":5126,
			"count":36,
			"max":[
				4.800000190734863,
				4.800000190734863,
				1
			],
			"min":[
				-0.800000011920929,
				-0.800000011920929,
				1
			],
			"type":"VEC3"
		},
		{
			"bufferView":9,
			"componentType":5126,
			"count":36,
			"type":"VEC2"
		},
		{
			"bufferView":10,
			"componentType":5126,
			"count":36,
			"type":"VEC3"
		},
		{
			"bufferView":11,
			"componentType":5123,
			"count":54,
			"type":"SCALAR"
		},
		{
			"bufferView":12,
			"componentType":5126,
			"count":36,
			"max":[
				4.800000190734863,
				5,
				0.800000011920929
			],
			"min":[
				-0.800000011920929,
				5,
				-4.800000190734863
			],
			"type":"VEC3"
		},
		{
			"bufferView":13,
			"componentType":5126,
			"count":36,
			"type":"VEC2"
		},
		{
			"bufferView":14,
			"componentType":5126,
			"count":36,
			"type":"VEC3"
		},
		{
			"bufferView":15,
			"componentType":5123,
			"count":54,
			"type":"SCALAR"
		},
		{
			"bufferView":16,
			"componentType":5126,
			"count":36,
			"max":[
				4.800000190734863,
				-1,
				0.800000011920929
			],
			"min":[
				-0.800000011920929,
				-1,
				-4.800000190734863
			],
			"type":"VEC3"
		},
		{
			"bufferView":17,
			"componentType":5126,
			"count":36,
			"type":"VEC2"
		},
		{
			"bufferView":18,
			"componentType":5126,
			"count":36,
			"type":"VEC3"
		},
		{
			"bufferView":19,
			"componentType":5123,
			"count":54,
			"type":"SCALAR"
		},
		{
			"bufferView":20,
			"componentType":5126,
			"count":36,
			"max":[
				-1,
				4.800000190734863,
				0.800000011920929
			],
			"min":[
				-1,
				-0.800000011920929,
				-4.800000190734863
			],
			"type":"VEC3"
		},
		{
			"bufferView":21,
			"componentType":5126,
			"count":36,
			"type":"VEC2"
		},
		{
			"bufferView":22,
			"componentType":5126,
			"count":36,
			"type":"VEC3"
		},
		{
			"bufferView":23,
			"componentType":5126,
			"count":36,
			"max":[
				5,
				4.800000190734863,
				0.800000011920929
			],
			"min":[
				5,
				-0.800000011920929,
				-4.800000190734863
			],
			"type":"VEC3"
		},
		{
			"bufferView":24,
			"componentType":5126,
			"count":36,
			"type":"VEC2"
		},
		{
			"bufferView":25,
			"componentType":5126,
			"count":36,
			"type":"VEC3"
		}
	],
	"bufferViews":[
		{
			"buffer":0,
			"byteLength":41796,
			"byteOffset":0,
			"target":34962
		},
		{
			"buffer":0,
			"byteLength":27864,
			"byteOffset":41796,
			"target":34962
		},
		{
			"buffer":0,
			"byteLength":41796,
			"byteOffset":69660,
			"target":34962
		},
		{
			"buffer":0,
			"byteLength":29808,
			"byteOffset":111456,
			"target":34963
		},
		{
			"buffer":0,
			"byteLength":432,
			"byteOffset":141264,
			"target":34962
		},
		{
			"buffer":0,
			"byteLength":288,
			"byteOffset":141696,
			"target":34962
		},
		{
			"buffer":0,
			"byteLength":432,
			"byteOffset":141984,
			"target":34962
		},
		{
			"buffer":0,
			"byteLength":108,
			"byteOffset":142416,
			"target":34963
		},
		{
			"buffer":0,
			"byteLength":432,
			"byteOffset":142524,
			"target":34962
		},
		{
			"buffer":0,
			"byteLength":288,
			"byteOffset":142956,
			"target":34962
		},
		{
			"buffer":0,
			"byteLength":432,
			"byteOffset":143244,
			"target":34962
		},
		{
			"buffer":0,
			"byteLength":108,
			"byteOffset":143676,
			"target":34963
		},
		{
			"buffer":0,
			"byteLength":432,
			"byteOffset":143784,
			"target":34962
		},
		{
			"buffer":0,
			"byteLength":288,
			"byteOffset":144216,
			"target":34962
		},
		{
			"buffer":0,
			"byteLength":432,
			"byteOffset":144504,
			"target":34962
		},
		{
			"buffer":0,
			"byteLength":108,
			"byteOffset":144936,
			"target":34963
		},
		{
			"buffer":0,
			"byteLength":432,
			"byteOffset":145044,
			"target":34962
		},
		{
			"buffer":0,
			"byteLength":288,
			"byteOffset":145476,
			"target":34962
		},
		{
			"buffer":0,
			"byteLength":432,
			"byteOffset":145764,
			"target":34962
		},
		{
			"buffer":0,
			"byteLength":108,
			"byteOffset":146196,
			"target":34963
		},
		{
			"buffer":0,
			"byteLength":432,
			"byteOffset":146304,
			"target":34962
		},
		{
			"buffer":0,
			"byteLength":288,
			"byteOffset":146736,
			"target":34962
		},
		{
			"buffer":0,
			"byteLength":432,
			"byteOffset":147024,
			"target":34962
		},
		{
			"buffer":0,
			"byteLength":432,
			"byteOffset":147456,
			"target":34962
		},
		{
			"buffer":0,
			"byteLength":288,
			"byteOffset":147888,
			"target":34962
		},
		{
			"buffer":0,
			"byteLength":432,
			"byteOffset":148176,
			"target":34962
		}
	],
	"buffers":[
		{
			"byteLength":148608,
			"uri":"rubiksCube.bin"
		}
	]
}
